<svg width="1200" height="800" xmlns="http://www.w3.org/2000/svg">
  <defs>
    <linearGradient id="bg" x1="0" y1="0" x2="1" y2="1"><stop offset="0%" stop-color="#0f0520"/><stop offset="100%" stop-color="#1a0a3e"/></linearGradient>
    <linearGradient id="pur" x1="0" y1="0" x2="1" y2="1"><stop offset="0%" stop-color="#8B5CF6"/><stop offset="100%" stop-color="#6D28D9"/></linearGradient>
    <radialGradient id="g1" cx="40%" cy="60%"><stop offset="0%" stop-color="#8B5CF6" stop-opacity=".15"/><stop offset="100%" stop-color="#8B5CF6" stop-opacity="0"/></radialGradient>
    <filter id="glow"><feGaussianBlur stdDeviation="30"/></filter>
  </defs>
  <rect width="1200" height="800" fill="url(#bg)"/><rect width="1200" height="800" fill="url(#g1)"/>
  <rect x="60" y="40" width="1080" height="720" rx="16" fill="#0d0d1a" stroke="#2d1b69"/>
  <rect x="60" y="40" width="1080" height="44" rx="16" fill="#1a1035"/><rect x="60" y="68" width="1080" height="16" fill="#1a1035"/>
  <circle cx="90" cy="62" r="6" fill="#FF5F57"/><circle cx="112" cy="62" r="6" fill="#FEBC2E"/><circle cx="134" cy="62" r="6" fill="#28C840"/>
  <!-- Settings / Profile page -->
  <rect x="60" y="84" width="1080" height="676" fill="#0a0818"/>
  <rect x="60" y="84" width="260" height="676" fill="#120e24"/>
  <rect x="80" y="110" width="100" height="10" rx="5" fill="#8B5CF6" opacity=".5"/>
  <rect x="80" y="140" width="220" height="36" rx="8" fill="url(#pur)" opacity=".2"/><rect x="96" y="152" width="100" height="8" rx="4" fill="#8B5CF6" opacity=".5"/>
  <rect x="80" y="190" width="220" height="30" rx="6" fill="#1a1035"/><rect x="96" y="200" width="80" height="8" rx="4" fill="#2d1b69" opacity=".4"/>
  <rect x="80" y="230" width="220" height="30" rx="6" fill="#1a1035"/><rect x="96" y="240" width="100" height="8" rx="4" fill="#2d1b69" opacity=".4"/>
  <rect x="80" y="270" width="220" height="30" rx="6" fill="#1a1035"/><rect x="96" y="280" width="90" height="8" rx="4" fill="#2d1b69" opacity=".4"/>
  <!-- Main settings -->
  <rect x="360" y="110" width="740" height="60" rx="10" fill="#1a1035" stroke="#2d1b69"/>
  <rect x="380" y="130" width="120" height="12" rx="6" fill="#8B5CF6" opacity=".4"/>
  <rect x="380" y="148" width="300" height="6" rx="3" fill="#2d1b69" opacity=".2"/>
  <!-- Profile section -->
  <rect x="360" y="190" width="740" height="200" rx="12" fill="#1a1035" stroke="#2d1b69"/>
  <circle cx="430" cy="290" r="40" fill="#12082a" stroke="#8B5CF6" stroke-width="1.5"/>
  <text x="416" y="296" fill="#8B5CF6" font-family="system-ui" font-size="20" font-weight="bold" opacity=".6">BS</text>
  <rect x="490" y="260" width="180" height="12" rx="6" fill="#2d1b69" opacity=".4"/>
  <rect x="490" y="284" width="120" height="8" rx="4" fill="#2d1b69" opacity=".3"/>
  <rect x="490" y="310" width="100" height="28" rx="6" fill="url(#pur)" opacity=".5"/>
  <rect x="600" y="310" width="100" height="28" rx="6" fill="#1a1035" stroke="#2d1b69"/>
  <!-- Settings rows -->
  <rect x="360" y="410" width="740" height="50" rx="8" fill="#1a1035" stroke="#2d1b69"/>
  <rect x="380" y="428" width="100" height="8" rx="4" fill="#2d1b69" opacity=".4"/>
  <rect x="1020" y="424" width="40" height="20" rx="10" fill="url(#pur)" opacity=".5"/>
  <rect x="360" y="470" width="740" height="50" rx="8" fill="#1a1035" stroke="#2d1b69"/>
  <rect x="380" y="488" width="120" height="8" rx="4" fill="#2d1b69" opacity=".4"/>
  <rect x="1020" y="484" width="40" height="20" rx="10" fill="#2d1b69" opacity=".3"/>
  <rect x="360" y="530" width="740" height="50" rx="8" fill="#1a1035" stroke="#2d1b69"/>
  <rect x="380" y="548" width="80" height="8" rx="4" fill="#2d1b69" opacity=".4"/>
  <rect x="980" y="542" width="80" height="24" rx="6" fill="#1a1035" stroke="#2d1b69"/>
  <circle cx="600" cy="400" r="160" fill="#8B5CF6" opacity=".03" filter="url(#glow)"/>
</svg>