<svg width="1200" height="800" xmlns="http://www.w3.org/2000/svg">
  <defs>
    <linearGradient id="bg" x1="0" y1="0" x2="1" y2="1"><stop offset="0%" stop-color="#0f0520"/><stop offset="100%" stop-color="#1a0a3e"/></linearGradient>
    <linearGradient id="pur" x1="0" y1="0" x2="1" y2="1"><stop offset="0%" stop-color="#8B5CF6"/><stop offset="100%" stop-color="#6D28D9"/></linearGradient>
    <radialGradient id="g1" cx="60%" cy="50%"><stop offset="0%" stop-color="#00F0FF" stop-opacity=".1"/><stop offset="100%" stop-color="#00F0FF" stop-opacity="0"/></radialGradient>
    <filter id="glow"><feGaussianBlur stdDeviation="30"/></filter>
  </defs>
  <rect width="1200" height="800" fill="url(#bg)"/><rect width="1200" height="800" fill="url(#g1)"/>
  <!-- Full width canvas view -->
  <rect x="60" y="40" width="1080" height="720" rx="16" fill="#0d0d1a" stroke="#2d1b69"/>
  <rect x="60" y="40" width="1080" height="44" rx="16" fill="#1a1035"/><rect x="60" y="68" width="1080" height="16" fill="#1a1035"/>
  <circle cx="90" cy="62" r="6" fill="#FF5F57"/><circle cx="112" cy="62" r="6" fill="#FEBC2E"/><circle cx="134" cy="62" r="6" fill="#28C840"/>
  <!-- Infinite canvas with scattered design elements -->
  <rect x="60" y="84" width="1080" height="676" fill="#0a0818"/>
  <!-- Component 1 -->
  <rect x="120" y="140" width="280" height="180" rx="12" fill="#1a1035" stroke="#2d1b69"/>
  <rect x="140" y="160" width="240" height="100" rx="8" fill="url(#pur)" opacity=".1"/>
  <rect x="160" y="180" width="140" height="10" rx="5" fill="#8B5CF6" opacity=".4"/>
  <rect x="160" y="200" width="100" height="8" rx="4" fill="#2d1b69" opacity=".3"/>
  <rect x="140" y="280" width="100" height="24" rx="6" fill="url(#pur)" opacity=".5"/>
  <!-- Component 2 -->
  <rect x="460" y="120" width="340" height="240" rx="12" fill="#1a1035" stroke="#8B5CF6" stroke-width=".5"/>
  <rect x="480" y="140" width="300" height="140" rx="8" fill="#12082a"/>
  <rect x="500" y="160" width="180" height="12" rx="6" fill="#8B5CF6" opacity=".35"/>
  <rect x="500" y="184" width="250" height="8" rx="4" fill="#2d1b69" opacity=".25"/>
  <rect x="500" y="200" width="200" height="8" rx="4" fill="#2d1b69" opacity=".2"/>
  <rect x="480" y="300" width="140" height="40" rx="8" fill="url(#pur)" opacity=".6"/>
  <rect x="640" y="300" width="140" height="40" rx="8" fill="#1a1035" stroke="#2d1b69"/>
  <!-- Component 3 -->
  <rect x="860" y="160" width="240" height="160" rx="12" fill="#1a1035" stroke="#2d1b69"/>
  <circle cx="980" cy="230" r="40" fill="url(#pur)" opacity=".15"/><circle cx="980" cy="230" r="30" fill="url(#pur)" opacity=".2"/>
  <rect x="880" y="290" width="100" height="6" rx="3" fill="#2d1b69" opacity=".3"/>
  <!-- Component 4 -->
  <rect x="160" y="380" width="320" height="260" rx="12" fill="#1a1035" stroke="#2d1b69"/>
  <rect x="180" y="400" width="280" height="160" rx="8" fill="#12082a"/>
  <polyline points="200,520 240,480 280,500 320,440 360,460 400,420 440,440" fill="none" stroke="#8B5CF6" stroke-width="2" opacity=".5"/>
  <rect x="180" y="580" width="120" height="8" rx="4" fill="#2d1b69" opacity=".3"/>
  <rect x="180" y="600" width="80" height="6" rx="3" fill="#2d1b69" opacity=".2"/>
  <!-- Component 5 -->
  <rect x="540" y="420" width="240" height="260" rx="12" fill="#1a1035" stroke="#2d1b69"/>
  <rect x="560" y="440" width="80" height="8" rx="4" fill="#2d1b69" opacity=".4"/>
  <rect x="560" y="468" width="200" height="36" rx="6" fill="#12082a" stroke="#2d1b69" stroke-width=".5"/>
  <rect x="560" y="514" width="200" height="36" rx="6" fill="#12082a" stroke="#2d1b69" stroke-width=".5"/>
  <rect x="560" y="560" width="200" height="36" rx="6" fill="#12082a" stroke="#2d1b69" stroke-width=".5"/>
  <rect x="560" y="620" width="120" height="30" rx="6" fill="url(#pur)" opacity=".5"/>
  <!-- Cursors -->
  <circle cx="380" cy="300" r="5" fill="#00F0FF" opacity=".8"/><text x="390" y="304" fill="#00F0FF" font-family="system-ui" font-size="9" opacity=".7">You</text>
  <circle cx="700" cy="500" r="5" fill="#F59E0B" opacity=".8"/><text x="710" y="504" fill="#F59E0B" font-family="system-ui" font-size="9" opacity=".7">Mike</text>
  <circle cx="600" cy="400" r="200" fill="#8B5CF6" opacity=".03" filter="url(#glow)"/>
</svg>