<svg width="1200" height="800" xmlns="http://www.w3.org/2000/svg">
  <defs>
    <linearGradient id="bg" x1="0" y1="0" x2="1" y2="1"><stop offset="0%" stop-color="#0f0520"/><stop offset="100%" stop-color="#1a0a3e"/></linearGradient>
    <linearGradient id="pur" x1="0" y1="0" x2="1" y2="1"><stop offset="0%" stop-color="#8B5CF6"/><stop offset="100%" stop-color="#6D28D9"/></linearGradient>
    <radialGradient id="g1" cx="30%" cy="40%"><stop offset="0%" stop-color="#8B5CF6" stop-opacity=".25"/><stop offset="100%" stop-color="#8B5CF6" stop-opacity="0"/></radialGradient>
    <radialGradient id="g2" cx="75%" cy="65%"><stop offset="0%" stop-color="#00F0FF" stop-opacity=".12"/><stop offset="100%" stop-color="#00F0FF" stop-opacity="0"/></radialGradient>
    <filter id="glow"><feGaussianBlur stdDeviation="40"/></filter>
  </defs>
  <rect width="1200" height="800" fill="url(#bg)"/>
  <rect width="1200" height="800" fill="url(#g1)"/>
  <rect width="1200" height="800" fill="url(#g2)"/>
  <g opacity=".04"><line x1="100" y1="0" x2="100" y2="800" stroke="#8B5CF6"/><line x1="200" y1="0" x2="200" y2="800" stroke="#8B5CF6"/><line x1="300" y1="0" x2="300" y2="800" stroke="#8B5CF6"/><line x1="400" y1="0" x2="400" y2="800" stroke="#8B5CF6"/><line x1="500" y1="0" x2="500" y2="800" stroke="#8B5CF6"/><line x1="600" y1="0" x2="600" y2="800" stroke="#8B5CF6"/><line x1="700" y1="0" x2="700" y2="800" stroke="#8B5CF6"/><line x1="800" y1="0" x2="800" y2="800" stroke="#8B5CF6"/><line x1="900" y1="0" x2="900" y2="800" stroke="#8B5CF6"/><line x1="1000" y1="0" x2="1000" y2="800" stroke="#8B5CF6"/><line x1="1100" y1="0" x2="1100" y2="800" stroke="#8B5CF6"/><line x1="0" y1="100" x2="1200" y2="100" stroke="#8B5CF6"/><line x1="0" y1="200" x2="1200" y2="200" stroke="#8B5CF6"/><line x1="0" y1="300" x2="1200" y2="300" stroke="#8B5CF6"/><line x1="0" y1="400" x2="1200" y2="400" stroke="#8B5CF6"/><line x1="0" y1="500" x2="1200" y2="500" stroke="#8B5CF6"/><line x1="0" y1="600" x2="1200" y2="600" stroke="#8B5CF6"/><line x1="0" y1="700" x2="1200" y2="700" stroke="#8B5CF6"/></g>
  <!-- Browser -->
  <rect x="80" y="60" width="1040" height="680" rx="16" fill="#0d0d1a" stroke="#2d1b69" stroke-width="1"/>
  <rect x="80" y="60" width="1040" height="44" rx="16" fill="#1a1035"/><rect x="80" y="88" width="1040" height="16" fill="#1a1035"/>
  <circle cx="110" cy="82" r="6" fill="#FF5F57"/><circle cx="132" cy="82" r="6" fill="#FEBC2E"/><circle cx="154" cy="82" r="6" fill="#28C840"/>
  <rect x="300" y="72" width="480" height="22" rx="11" fill="#0d0d1a" stroke="#2d1b69" stroke-width=".5"/>
  <!-- Sidebar -->
  <rect x="80" y="104" width="200" height="636" fill="#120e24"/>
  <rect x="100" y="130" width="100" height="10" rx="5" fill="#2d1b69" opacity=".5"/>
  <rect x="100" y="158" width="160" height="36" rx="8" fill="url(#pur)" opacity=".25"/>
  <rect x="116" y="170" width="80" height="8" rx="4" fill="#8B5CF6" opacity=".7"/>
  <rect x="100" y="210" width="120" height="8" rx="4" fill="#2d1b69" opacity=".35"/><rect x="100" y="230" width="100" height="8" rx="4" fill="#2d1b69" opacity=".25"/><rect x="100" y="250" width="140" height="8" rx="4" fill="#2d1b69" opacity=".25"/>
  <rect x="100" y="290" width="160" height="30" rx="6" fill="#1a1035" stroke="#2d1b69" stroke-width=".5"/><rect x="100" y="330" width="160" height="30" rx="6" fill="#1a1035" stroke="#2d1b69" stroke-width=".5"/><rect x="100" y="370" width="160" height="30" rx="6" fill="#1a1035" stroke="#2d1b69" stroke-width=".5"/>
  <!-- Canvas -->
  <rect x="280" y="104" width="840" height="636" fill="#0a0818"/>
  <rect x="340" y="160" width="400" height="260" rx="12" fill="#1a1035" stroke="#2d1b69"/><rect x="360" y="180" width="360" height="160" rx="8" fill="url(#pur)" opacity=".12"/>
  <rect x="380" y="200" width="200" height="12" rx="6" fill="#8B5CF6" opacity=".45"/><rect x="380" y="224" width="140" height="8" rx="4" fill="#2d1b69" opacity=".5"/>
  <rect x="380" y="248" width="100" height="28" rx="6" fill="url(#pur)" opacity=".7"/>
  <rect x="380" y="300" width="280" height="6" rx="3" fill="#2d1b69" opacity=".25"/><rect x="380" y="314" width="240" height="6" rx="3" fill="#2d1b69" opacity=".18"/>
  <!-- Right panel -->
  <rect x="780" y="160" width="300" height="200" rx="12" fill="#1a1035" stroke="#2d1b69"/>
  <rect x="800" y="180" width="260" height="100" rx="8" fill="#12082a"/>
  <circle cx="830" cy="230" r="20" fill="url(#pur)" opacity=".35"/><rect x="870" y="222" width="100" height="8" rx="4" fill="#2d1b69" opacity=".45"/><rect x="870" y="238" width="60" height="6" rx="3" fill="#2d1b69" opacity=".25"/>
  <rect x="800" y="300" width="120" height="28" rx="6" fill="url(#pur)" opacity=".5"/><rect x="930" y="300" width="120" height="28" rx="6" fill="#1a1035" stroke="#2d1b69"/>
  <!-- Cursors -->
  <circle cx="500" cy="260" r="5" fill="#00F0FF" opacity=".85"/><text x="512" y="264" fill="#00F0FF" font-family="system-ui" font-size="9" opacity=".8">Alex</text>
  <circle cx="850" cy="340" r="5" fill="#F43F5E" opacity=".85"/><text x="862" y="344" fill="#F43F5E" font-family="system-ui" font-size="9" opacity=".8">Sara</text>
  <!-- Glow -->
  <circle cx="600" cy="400" r="220" fill="#8B5CF6" opacity=".04" filter="url(#glow)"/>
</svg>