<svg width="1200" height="800" xmlns="http://www.w3.org/2000/svg">
  <defs>
    <linearGradient id="bg" x1="0" y1="0" x2="1" y2="1"><stop offset="0%" stop-color="#0a0418"/><stop offset="100%" stop-color="#14082e"/></linearGradient>
    <linearGradient id="pur" x1="0" y1="0" x2="1" y2="1"><stop offset="0%" stop-color="#8B5CF6"/><stop offset="100%" stop-color="#6D28D9"/></linearGradient>
    <radialGradient id="g1" cx="50%" cy="50%"><stop offset="0%" stop-color="#8B5CF6" stop-opacity=".12"/><stop offset="100%" stop-color="#8B5CF6" stop-opacity="0"/></radialGradient>
    <filter id="glow"><feGaussianBlur stdDeviation="30"/></filter>
  </defs>
  <rect width="1200" height="800" fill="url(#bg)"/><rect width="1200" height="800" fill="url(#g1)"/>
  <!-- Mobile frame -->
  <rect x="400" y="40" width="400" height="720" rx="40" fill="#0d0d1a" stroke="#2d1b69" stroke-width="2"/>
  <rect x="540" y="40" width="120" height="30" rx="15" fill="#000"/>
  <text x="430" y="80" fill="#fff" font-family="system-ui" font-size="14" opacity=".6">9:41</text>
  <!-- Stats / History view -->
  <rect x="430" y="100" width="340" height="44" fill="#120e24"/>
  <rect x="450" y="114" width="60" height="10" rx="5" fill="#2d1b69" opacity=".4"/>
  <rect x="534" y="114" width="60" height="10" rx="5" fill="#8B5CF6" opacity=".5"/>
  <!-- Weekly chart -->
  <rect x="440" y="160" width="320" height="200" rx="14" fill="#1a1035" stroke="#2d1b69"/>
  <rect x="460" y="178" width="80" height="8" rx="4" fill="#2d1b69" opacity=".4"/>
  <g transform="translate(460,210)">
    <rect x="0" y="100" width="30" height="40" rx="4" fill="url(#pur)" opacity=".3"/>
    <rect x="44" y="70" width="30" height="70" rx="4" fill="url(#pur)" opacity=".35"/>
    <rect x="88" y="40" width="30" height="100" rx="4" fill="url(#pur)" opacity=".5"/>
    <rect x="132" y="60" width="30" height="80" rx="4" fill="url(#pur)" opacity=".4"/>
    <rect x="176" y="20" width="30" height="120" rx="4" fill="#8B5CF6" opacity=".6"/>
    <rect x="220" y="50" width="30" height="90" rx="4" fill="url(#pur)" opacity=".35"/>
    <rect x="264" y="80" width="30" height="60" rx="4" fill="url(#pur)" opacity=".25"/>
  </g>
  <text x="460" y="342" fill="#2d1b69" font-family="system-ui" font-size="8" opacity=".5">Mon  Tue  Wed  Thu   Fri   Sat   Sun</text>
  <!-- Stats cards -->
  <rect x="440" y="375" width="150" height="80" rx="10" fill="#1a1035" stroke="#2d1b69"/>
  <rect x="458" y="393" width="50" height="6" rx="3" fill="#2d1b69" opacity=".3"/>
  <text x="458" y="430" fill="#8B5CF6" font-family="system-ui" font-size="24" font-weight="bold" opacity=".6">142</text>
  <rect x="458" y="440" width="40" height="5" rx="2" fill="#2d1b69" opacity=".2"/>
  <rect x="610" y="375" width="150" height="80" rx="10" fill="#1a1035" stroke="#2d1b69"/>
  <rect x="628" y="393" width="60" height="6" rx="3" fill="#2d1b69" opacity=".3"/>
  <text x="628" y="430" fill="#10B981" font-family="system-ui" font-size="24" font-weight="bold" opacity=".6">28h</text>
  <rect x="628" y="440" width="50" height="5" rx="2" fill="#2d1b69" opacity=".2"/>
  <!-- Session list -->
  <rect x="440" y="470" width="320" height="56" rx="10" fill="#1a1035" stroke="#2d1b69"/>
  <circle cx="468" cy="498" r="14" fill="#12082a" stroke="#2d1b69"/><rect x="492" y="490" width="120" height="8" rx="4" fill="#2d1b69" opacity=".35"/><rect x="492" y="504" width="80" height="6" rx="3" fill="#2d1b69" opacity=".2"/><rect x="710" y="492" width="30" height="6" rx="3" fill="#8B5CF6" opacity=".3"/>
  <rect x="440" y="535" width="320" height="56" rx="10" fill="#1a1035" stroke="#2d1b69"/>
  <circle cx="468" cy="563" r="14" fill="#12082a" stroke="#2d1b69"/><rect x="492" y="555" width="100" height="8" rx="4" fill="#2d1b69" opacity=".35"/><rect x="492" y="569" width="70" height="6" rx="3" fill="#2d1b69" opacity=".2"/><rect x="710" y="557" width="25" height="6" rx="3" fill="#10B981" opacity=".3"/>
  <rect x="440" y="600" width="320" height="56" rx="10" fill="#1a1035" stroke="#2d1b69"/>
  <circle cx="468" cy="628" r="14" fill="#12082a" stroke="#2d1b69"/><rect x="492" y="620" width="140" height="8" rx="4" fill="#2d1b69" opacity=".35"/><rect x="492" y="634" width="60" height="6" rx="3" fill="#2d1b69" opacity=".2"/><rect x="710" y="622" width="28" height="6" rx="3" fill="#F59E0B" opacity=".3"/>
  <!-- Nav -->
  <rect x="430" y="680" width="340" height="60" rx="0" fill="#120e24"/>
  <circle cx="490" cy="710" r="12" fill="#2d1b69" opacity=".3"/><circle cx="560" cy="710" r="12" fill="#2d1b69" opacity=".3"/><circle cx="630" cy="710" r="12" fill="#2d1b69" opacity=".3"/><circle cx="700" cy="710" r="12" fill="url(#pur)" opacity=".4"/>
  <circle cx="600" cy="400" r="180" fill="#8B5CF6" opacity=".03" filter="url(#glow)"/>
</svg>