<svg width="1200" height="800" xmlns="http://www.w3.org/2000/svg">
  <defs>
    <linearGradient id="bg" x1="0" y1="0" x2="1" y2="1"><stop offset="0%" stop-color="#0a0418"/><stop offset="100%" stop-color="#14082e"/></linearGradient>
    <linearGradient id="pur" x1="0" y1="0" x2="1" y2="1"><stop offset="0%" stop-color="#8B5CF6"/><stop offset="100%" stop-color="#6D28D9"/></linearGradient>
    <radialGradient id="g1" cx="50%" cy="50%"><stop offset="0%" stop-color="#10B981" stop-opacity=".12"/><stop offset="100%" stop-color="#10B981" stop-opacity="0"/></radialGradient>
    <radialGradient id="g2" cx="50%" cy="50%"><stop offset="0%" stop-color="#8B5CF6" stop-opacity=".15"/><stop offset="100%" stop-color="#8B5CF6" stop-opacity="0"/></radialGradient>
    <filter id="glow"><feGaussianBlur stdDeviation="30"/></filter>
  </defs>
  <rect width="1200" height="800" fill="url(#bg)"/>
  <rect width="1200" height="800" fill="url(#g2)"/>
  <!-- Mobile frame -->
  <rect x="400" y="40" width="400" height="720" rx="40" fill="#0d0d1a" stroke="#2d1b69" stroke-width="2"/>
  <rect x="400" y="40" width="400" height="720" rx="40" fill="url(#g1)"/>
  <!-- Status bar -->
  <text x="430" y="80" fill="#fff" font-family="system-ui" font-size="14" opacity=".6">9:41</text>
  <rect x="700" y="68" width="30" height="14" rx="3" fill="#fff" opacity=".3"/>
  <rect x="660" y="72" width="20" height="10" rx="2" fill="#fff" opacity=".2"/>
  <!-- Notch -->
  <rect x="540" y="40" width="120" height="30" rx="15" fill="#000"/>
  <!-- App content -->
  <rect x="430" y="100" width="140" height="14" rx="7" fill="#8B5CF6" opacity=".5"/>
  <rect x="700" y="100" width="30" height="30" rx="15" fill="#1a1035" stroke="#2d1b69"/>
  <!-- Player card -->
  <rect x="430" y="140" width="340" height="320" rx="20" fill="#1a1035" stroke="#2d1b69"/>
  <rect x="450" y="160" width="300" height="200" rx="14" fill="#12082a"/>
  <!-- Waveform visualization -->
  <g transform="translate(460,210)">
    <rect x="0" y="20" width="6" height="40" rx="3" fill="#8B5CF6" opacity=".4"/><rect x="14" y="10" width="6" height="60" rx="3" fill="#8B5CF6" opacity=".5"/><rect x="28" y="0" width="6" height="80" rx="3" fill="#8B5CF6" opacity=".6"/><rect x="42" y="15" width="6" height="50" rx="3" fill="#8B5CF6" opacity=".5"/><rect x="56" y="5" width="6" height="70" rx="3" fill="#00F0FF" opacity=".5"/><rect x="70" y="20" width="6" height="40" rx="3" fill="#00F0FF" opacity=".4"/><rect x="84" y="10" width="6" height="60" rx="3" fill="#8B5CF6" opacity=".5"/><rect x="98" y="25" width="6" height="30" rx="3" fill="#8B5CF6" opacity=".4"/><rect x="112" y="15" width="6" height="50" rx="3" fill="#8B5CF6" opacity=".5"/><rect x="126" y="0" width="6" height="80" rx="3" fill="#10B981" opacity=".5"/><rect x="140" y="20" width="6" height="40" rx="3" fill="#10B981" opacity=".4"/><rect x="154" y="10" width="6" height="60" rx="3" fill="#8B5CF6" opacity=".5"/><rect x="168" y="5" width="6" height="70" rx="3" fill="#8B5CF6" opacity=".45"/><rect x="182" y="15" width="6" height="50" rx="3" fill="#8B5CF6" opacity=".35"/><rect x="196" y="25" width="6" height="30" rx="3" fill="#8B5CF6" opacity=".3"/><rect x="210" y="10" width="6" height="60" rx="3" fill="#8B5CF6" opacity=".4"/><rect x="224" y="20" width="6" height="40" rx="3" fill="#8B5CF6" opacity=".35"/><rect x="238" y="30" width="6" height="20" rx="3" fill="#8B5CF6" opacity=".25"/><rect x="252" y="25" width="6" height="30" rx="3" fill="#8B5CF6" opacity=".3"/><rect x="266" y="15" width="6" height="50" rx="3" fill="#8B5CF6" opacity=".4"/>
  </g>
  <rect x="450" y="380" width="200" height="10" rx="5" fill="#2d1b69" opacity=".4"/>
  <rect x="450" y="400" width="120" height="8" rx="4" fill="#2d1b69" opacity=".25"/>
  <!-- Transport controls -->
  <circle cx="540" cy="430" r="8" fill="#2d1b69" opacity=".5"/>
  <circle cx="600" cy="430" r="18" fill="url(#pur)" opacity=".7"/>
  <circle cx="660" cy="430" r="8" fill="#2d1b69" opacity=".5"/>
  <!-- Progress bar -->
  <rect x="450" y="448" width="300" height="4" rx="2" fill="#2d1b69" opacity=".3"/>
  <rect x="450" y="448" width="180" height="4" rx="2" fill="url(#pur)" opacity=".6"/>
  <circle cx="630" cy="450" r="6" fill="#8B5CF6" opacity=".8"/>
  <!-- Bottom cards -->
  <rect x="430" y="480" width="340" height="80" rx="12" fill="#1a1035" stroke="#2d1b69"/>
  <circle cx="470" cy="520" r="20" fill="#12082a" stroke="#2d1b69"/>
  <rect x="500" y="510" width="120" height="8" rx="4" fill="#2d1b69" opacity=".4"/>
  <rect x="500" y="526" width="80" height="6" rx="3" fill="#2d1b69" opacity=".25"/>
  <rect x="430" y="570" width="340" height="80" rx="12" fill="#1a1035" stroke="#2d1b69"/>
  <circle cx="470" cy="610" r="20" fill="#12082a" stroke="#2d1b69"/>
  <rect x="500" y="600" width="140" height="8" rx="4" fill="#2d1b69" opacity=".4"/>
  <rect x="500" y="616" width="100" height="6" rx="3" fill="#2d1b69" opacity=".25"/>
  <!-- Bottom nav -->
  <rect x="430" y="680" width="340" height="60" rx="0" fill="#120e24"/>
  <circle cx="490" cy="710" r="12" fill="#2d1b69" opacity=".4"/><circle cx="560" cy="710" r="12" fill="url(#pur)" opacity=".5"/><circle cx="630" cy="710" r="12" fill="#2d1b69" opacity=".4"/><circle cx="700" cy="710" r="12" fill="#2d1b69" opacity=".4"/>
  <!-- Ambient glow -->
  <circle cx="600" cy="300" r="200" fill="#8B5CF6" opacity=".04" filter="url(#glow)"/>
  <circle cx="600" cy="300" r="120" fill="#10B981" opacity=".03" filter="url(#glow)"/>
</svg>