<svg width="1200" height="800" xmlns="http://www.w3.org/2000/svg">
  <defs>
    <linearGradient id="bg" x1="0" y1="0" x2="1" y2="1"><stop offset="0%" stop-color="#0d0520"/><stop offset="100%" stop-color="#180a3a"/></linearGradient>
    <linearGradient id="pur" x1="0" y1="0" x2="1" y2="1"><stop offset="0%" stop-color="#8B5CF6"/><stop offset="100%" stop-color="#6D28D9"/></linearGradient>
    <linearGradient id="fire" x1="0" y1="1" x2="0" y2="0"><stop offset="0%" stop-color="#F59E0B"/><stop offset="100%" stop-color="#F43F5E"/></linearGradient>
    <radialGradient id="g1" cx="40%" cy="50%"><stop offset="0%" stop-color="#F59E0B" stop-opacity=".1"/><stop offset="100%" stop-color="#F59E0B" stop-opacity="0"/></radialGradient>
    <radialGradient id="g2" cx="70%" cy="40%"><stop offset="0%" stop-color="#8B5CF6" stop-opacity=".15"/><stop offset="100%" stop-color="#8B5CF6" stop-opacity="0"/></radialGradient>
    <filter id="glow"><feGaussianBlur stdDeviation="30"/></filter>
  </defs>
  <rect width="1200" height="800" fill="url(#bg)"/><rect width="1200" height="800" fill="url(#g1)"/><rect width="1200" height="800" fill="url(#g2)"/>
  <g opacity=".03"><line x1="120" y1="0" x2="120" y2="800" stroke="#8B5CF6"/><line x1="240" y1="0" x2="240" y2="800" stroke="#8B5CF6"/><line x1="360" y1="0" x2="360" y2="800" stroke="#8B5CF6"/><line x1="480" y1="0" x2="480" y2="800" stroke="#8B5CF6"/><line x1="600" y1="0" x2="600" y2="800" stroke="#8B5CF6"/><line x1="720" y1="0" x2="720" y2="800" stroke="#8B5CF6"/><line x1="840" y1="0" x2="840" y2="800" stroke="#8B5CF6"/><line x1="960" y1="0" x2="960" y2="800" stroke="#8B5CF6"/><line x1="1080" y1="0" x2="1080" y2="800" stroke="#8B5CF6"/><line x1="0" y1="100" x2="1200" y2="100" stroke="#8B5CF6"/><line x1="0" y1="200" x2="1200" y2="200" stroke="#8B5CF6"/><line x1="0" y1="300" x2="1200" y2="300" stroke="#8B5CF6"/><line x1="0" y1="400" x2="1200" y2="400" stroke="#8B5CF6"/><line x1="0" y1="500" x2="1200" y2="500" stroke="#8B5CF6"/><line x1="0" y1="600" x2="1200" y2="600" stroke="#8B5CF6"/><line x1="0" y1="700" x2="1200" y2="700" stroke="#8B5CF6"/></g>
  <!-- Browser -->
  <rect x="80" y="50" width="1040" height="700" rx="16" fill="#0d0d1a" stroke="#2d1b69"/>
  <rect x="80" y="50" width="1040" height="44" rx="16" fill="#1a1035"/><rect x="80" y="78" width="1040" height="16" fill="#1a1035"/>
  <circle cx="110" cy="72" r="6" fill="#FF5F57"/><circle cx="132" cy="72" r="6" fill="#FEBC2E"/><circle cx="154" cy="72" r="6" fill="#28C840"/>
  <rect x="300" y="62" width="480" height="22" rx="11" fill="#0d0d1a" stroke="#2d1b69" stroke-width=".5"/>
  <!-- Top bar -->
  <rect x="80" y="94" width="1040" height="50" fill="#120e24"/>
  <rect x="110" y="110" width="90" height="10" rx="5" fill="#F59E0B" opacity=".5"/>
  <rect x="950" y="106" width="130" height="28" rx="6" fill="url(#pur)" opacity=".5"/>
  <!-- Left panel: workflow -->
  <rect x="110" y="170" width="300" height="540" rx="12" fill="#1a1035" stroke="#2d1b69"/>
  <rect x="130" y="190" width="80" height="8" rx="4" fill="#2d1b69" opacity=".4"/>
  <!-- Workflow nodes -->
  <rect x="140" y="220" width="260" height="50" rx="10" fill="#12082a" stroke="#8B5CF6" stroke-width=".5"/>
  <circle cx="165" cy="245" r="10" fill="url(#pur)" opacity=".5"/><rect x="185" y="238" width="100" height="8" rx="4" fill="#2d1b69" opacity=".5"/><rect x="185" y="252" width="60" height="6" rx="3" fill="#2d1b69" opacity=".3"/>
  <line x1="270" y1="270" x2="270" y2="290" stroke="#8B5CF6" stroke-width="1.5" opacity=".3"/>
  <rect x="140" y="290" width="260" height="50" rx="10" fill="#12082a" stroke="#F59E0B" stroke-width=".5"/>
  <circle cx="165" cy="315" r="10" fill="url(#fire)" opacity=".5"/><rect x="185" y="308" width="120" height="8" rx="4" fill="#2d1b69" opacity=".5"/><rect x="185" y="322" width="80" height="6" rx="3" fill="#2d1b69" opacity=".3"/>
  <line x1="270" y1="340" x2="270" y2="360" stroke="#8B5CF6" stroke-width="1.5" opacity=".3"/>
  <rect x="140" y="360" width="260" height="50" rx="10" fill="#12082a" stroke="#00F0FF" stroke-width=".5"/>
  <circle cx="165" cy="385" r="10" fill="#00F0FF" opacity=".3"/><rect x="185" y="378" width="90" height="8" rx="4" fill="#2d1b69" opacity=".5"/><rect x="185" y="392" width="70" height="6" rx="3" fill="#2d1b69" opacity=".3"/>
  <line x1="270" y1="410" x2="270" y2="430" stroke="#8B5CF6" stroke-width="1.5" opacity=".3"/>
  <rect x="140" y="430" width="260" height="50" rx="10" fill="#12082a" stroke="#10B981" stroke-width=".5"/>
  <circle cx="165" cy="455" r="10" fill="#10B981" opacity=".3"/><rect x="185" y="448" width="110" height="8" rx="4" fill="#2d1b69" opacity=".5"/><rect x="185" y="462" width="60" height="6" rx="3" fill="#2d1b69" opacity=".3"/>
  <!-- Right panel: output -->
  <rect x="440" y="170" width="650" height="330" rx="12" fill="#1a1035" stroke="#2d1b69"/>
  <rect x="460" y="190" width="100" height="8" rx="4" fill="#2d1b69" opacity=".4"/>
  <!-- Code output -->
  <rect x="460" y="220" width="610" height="250" rx="8" fill="#0a0818" stroke="#2d1b69" stroke-width=".5"/>
  <rect x="480" y="240" width="200" height="8" rx="4" fill="#8B5CF6" opacity=".3"/><rect x="480" y="258" width="300" height="8" rx="4" fill="#00F0FF" opacity=".2"/><rect x="480" y="276" width="160" height="8" rx="4" fill="#F59E0B" opacity=".25"/><rect x="480" y="294" width="250" height="8" rx="4" fill="#2d1b69" opacity=".2"/><rect x="480" y="312" width="180" height="8" rx="4" fill="#10B981" opacity=".25"/><rect x="480" y="330" width="280" height="8" rx="4" fill="#2d1b69" opacity=".15"/><rect x="480" y="348" width="220" height="8" rx="4" fill="#8B5CF6" opacity=".2"/><rect x="480" y="366" width="140" height="8" rx="4" fill="#2d1b69" opacity=".15"/><rect x="480" y="384" width="320" height="8" rx="4" fill="#00F0FF" opacity=".15"/><rect x="480" y="402" width="190" height="8" rx="4" fill="#2d1b69" opacity=".15"/><rect x="480" y="420" width="260" height="8" rx="4" fill="#F59E0B" opacity=".15"/>
  <!-- Bottom panel -->
  <rect x="440" y="520" width="315" height="190" rx="12" fill="#1a1035" stroke="#2d1b69"/>
  <rect x="460" y="540" width="80" height="8" rx="4" fill="#2d1b69" opacity=".4"/>
  <rect x="460" y="568" width="60" height="120" rx="4" fill="url(#pur)" opacity=".25"/><rect x="530" y="588" width="60" height="100" rx="4" fill="url(#pur)" opacity=".35"/><rect x="600" y="558" width="60" height="130" rx="4" fill="url(#fire)" opacity=".3"/><rect x="670" y="598" width="60" height="90" rx="4" fill="url(#pur)" opacity=".2"/>
  <rect x="775" y="520" width="315" height="190" rx="12" fill="#1a1035" stroke="#2d1b69"/>
  <rect x="795" y="540" width="80" height="8" rx="4" fill="#2d1b69" opacity=".4"/>
  <text x="795" y="600" fill="#F59E0B" font-family="system-ui" font-size="42" font-weight="bold" opacity=".6">98.2%</text>
  <rect x="795" y="620" width="100" height="6" rx="3" fill="#2d1b69" opacity=".3"/>
  <rect x="795" y="640" width="240" height="6" rx="3" fill="#10B981" opacity=".25"/>
  <rect x="795" y="652" width="200" height="6" rx="3" fill="#10B981" opacity=".15"/>
  <circle cx="600" cy="400" r="200" fill="#F59E0B" opacity=".03" filter="url(#glow)"/>
</svg>