<svg width="1200" height="800" xmlns="http://www.w3.org/2000/svg">
  <defs>
    <linearGradient id="bg" x1="0" y1="0" x2="1" y2="1"><stop offset="0%" stop-color="#0d0520"/><stop offset="100%" stop-color="#180a3a"/></linearGradient>
    <linearGradient id="pur" x1="0" y1="0" x2="1" y2="1"><stop offset="0%" stop-color="#8B5CF6"/><stop offset="100%" stop-color="#6D28D9"/></linearGradient>
    <radialGradient id="g1" cx="50%" cy="50%"><stop offset="0%" stop-color="#8B5CF6" stop-opacity=".12"/><stop offset="100%" stop-color="#8B5CF6" stop-opacity="0"/></radialGradient>
    <filter id="glow"><feGaussianBlur stdDeviation="30"/></filter>
  </defs>
  <rect width="1200" height="800" fill="url(#bg)"/><rect width="1200" height="800" fill="url(#g1)"/>
  <rect x="80" y="50" width="1040" height="700" rx="16" fill="#0d0d1a" stroke="#2d1b69"/>
  <rect x="80" y="50" width="1040" height="44" rx="16" fill="#1a1035"/><rect x="80" y="78" width="1040" height="16" fill="#1a1035"/>
  <circle cx="110" cy="72" r="6" fill="#FF5F57"/><circle cx="132" cy="72" r="6" fill="#FEBC2E"/><circle cx="154" cy="72" r="6" fill="#28C840"/>
  <rect x="80" y="94" width="1040" height="50" fill="#120e24"/>
  <rect x="110" y="112" width="90" height="10" rx="5" fill="#F59E0B" opacity=".5"/>
  <!-- Settings / Config view -->
  <rect x="80" y="144" width="240" height="606" fill="#120e24"/>
  <rect x="100" y="170" width="80" height="8" rx="4" fill="#2d1b69" opacity=".4"/>
  <rect x="100" y="196" width="200" height="32" rx="6" fill="url(#pur)" opacity=".2"/><rect x="116" y="206" width="80" height="8" rx="4" fill="#8B5CF6" opacity=".5"/>
  <rect x="100" y="240" width="200" height="28" rx="6" fill="#1a1035"/><rect x="116" y="248" width="100" height="8" rx="4" fill="#2d1b69" opacity=".35"/>
  <rect x="100" y="276" width="200" height="28" rx="6" fill="#1a1035"/><rect x="116" y="284" width="70" height="8" rx="4" fill="#2d1b69" opacity=".35"/>
  <rect x="100" y="312" width="200" height="28" rx="6" fill="#1a1035"/><rect x="116" y="320" width="90" height="8" rx="4" fill="#2d1b69" opacity=".35"/>
  <rect x="100" y="360" width="60" height="6" rx="3" fill="#2d1b69" opacity=".25"/>
  <rect x="100" y="380" width="200" height="28" rx="6" fill="#1a1035"/><rect x="116" y="388" width="80" height="8" rx="4" fill="#2d1b69" opacity=".35"/>
  <rect x="100" y="416" width="200" height="28" rx="6" fill="#1a1035"/><rect x="116" y="424" width="110" height="8" rx="4" fill="#2d1b69" opacity=".35"/>
  <!-- Main: API config -->
  <rect x="350" y="170" width="740" height="80" rx="12" fill="#1a1035" stroke="#2d1b69"/>
  <rect x="370" y="190" width="120" height="12" rx="6" fill="#2d1b69" opacity=".4"/>
  <rect x="370" y="212" width="400" height="8" rx="4" fill="#2d1b69" opacity=".2"/>
  <rect x="990" y="190" width="80" height="30" rx="6" fill="url(#pur)" opacity=".4"/>
  <!-- Config form -->
  <rect x="350" y="270" width="740" height="380" rx="12" fill="#1a1035" stroke="#2d1b69"/>
  <rect x="370" y="290" width="100" height="8" rx="4" fill="#2d1b69" opacity=".4"/>
  <!-- Form rows -->
  <rect x="370" y="318" width="160" height="6" rx="3" fill="#2d1b69" opacity=".3"/>
  <rect x="370" y="334" width="700" height="36" rx="6" fill="#12082a" stroke="#2d1b69"/><rect x="390" y="346" width="200" height="8" rx="4" fill="#2d1b69" opacity=".2"/>
  <rect x="370" y="388" width="120" height="6" rx="3" fill="#2d1b69" opacity=".3"/>
  <rect x="370" y="404" width="700" height="36" rx="6" fill="#12082a" stroke="#2d1b69"/><rect x="390" y="416" width="300" height="8" rx="4" fill="#2d1b69" opacity=".2"/>
  <rect x="370" y="458" width="140" height="6" rx="3" fill="#2d1b69" opacity=".3"/>
  <rect x="370" y="474" width="340" height="36" rx="6" fill="#12082a" stroke="#2d1b69"/><rect x="390" y="486" width="100" height="8" rx="4" fill="#2d1b69" opacity=".2"/>
  <rect x="720" y="474" width="340" height="36" rx="6" fill="#12082a" stroke="#2d1b69"/><rect x="740" y="486" width="150" height="8" rx="4" fill="#2d1b69" opacity=".2"/>
  <rect x="370" y="530" width="160" height="6" rx="3" fill="#2d1b69" opacity=".3"/>
  <rect x="370" y="546" width="700" height="70" rx="6" fill="#12082a" stroke="#2d1b69"/><rect x="390" y="560" width="500" height="6" rx="3" fill="#2d1b69" opacity=".15"/><rect x="390" y="574" width="400" height="6" rx="3" fill="#2d1b69" opacity=".12"/><rect x="390" y="588" width="300" height="6" rx="3" fill="#2d1b69" opacity=".1"/>
  <!-- Action buttons -->
  <rect x="350" y="670" width="740" height="60" rx="12" fill="#1a1035" stroke="#2d1b69"/>
  <rect x="890" y="685" width="100" height="32" rx="6" fill="#1a1035" stroke="#2d1b69"/>
  <rect x="1000" y="685" width="70" height="32" rx="6" fill="url(#pur)" opacity=".5"/>
  <circle cx="600" cy="400" r="200" fill="#8B5CF6" opacity=".03" filter="url(#glow)"/>
</svg>