<svg width="1200" height="800" xmlns="http://www.w3.org/2000/svg">
  <defs>
    <linearGradient id="bg" x1="0" y1="0" x2="1" y2="1"><stop offset="0%" stop-color="#0a0520"/><stop offset="100%" stop-color="#150a35"/></linearGradient>
    <linearGradient id="pur" x1="0" y1="0" x2="1" y2="1"><stop offset="0%" stop-color="#8B5CF6"/><stop offset="100%" stop-color="#6D28D9"/></linearGradient>
    <radialGradient id="g1" cx="50%" cy="50%"><stop offset="0%" stop-color="#00F0FF" stop-opacity=".1"/><stop offset="100%" stop-color="#00F0FF" stop-opacity="0"/></radialGradient>
    <filter id="glow"><feGaussianBlur stdDeviation="30"/></filter>
  </defs>
  <rect width="1200" height="800" fill="url(#bg)"/><rect width="1200" height="800" fill="url(#g1)"/>
  <rect x="80" y="50" width="1040" height="700" rx="16" fill="#0d0d1a" stroke="#2d1b69"/>
  <rect x="80" y="50" width="1040" height="44" rx="16" fill="#1a1035"/><rect x="80" y="78" width="1040" height="16" fill="#1a1035"/>
  <circle cx="110" cy="72" r="6" fill="#FF5F57"/><circle cx="132" cy="72" r="6" fill="#FEBC2E"/><circle cx="154" cy="72" r="6" fill="#28C840"/>
  <!-- Detailed chart view -->
  <rect x="80" y="94" width="1040" height="48" fill="#120e24"/>
  <rect x="110" y="110" width="80" height="10" rx="5" fill="#8B5CF6" opacity=".5"/>
  <rect x="210" y="112" width="60" height="8" rx="4" fill="#2d1b69" opacity=".3"/><rect x="290" y="112" width="50" height="8" rx="4" fill="#2d1b69" opacity=".3"/>
  <!-- Full width chart -->
  <rect x="110" y="165" width="980" height="360" rx="12" fill="#1a1035" stroke="#2d1b69"/>
  <rect x="130" y="185" width="100" height="10" rx="5" fill="#2d1b69" opacity=".4"/>
  <rect x="900" y="182" width="60" height="24" rx="6" fill="url(#pur)" opacity=".3"/><rect x="970" y="182" width="60" height="24" rx="6" fill="url(#pur)" opacity=".2"/><rect x="1040" y="182" width="30" height="24" rx="6" fill="#1a1035" stroke="#2d1b69"/>
  <!-- Area chart -->
  <polygon points="160,480 220,440 280,460 340,380 400,400 460,340 520,360 580,300 640,320 700,280 760,300 820,260 880,290 940,250 1000,270 1060,240 1060,480" fill="url(#pur)" opacity=".08"/>
  <polyline points="160,480 220,440 280,460 340,380 400,400 460,340 520,360 580,300 640,320 700,280 760,300 820,260 880,290 940,250 1000,270 1060,240" fill="none" stroke="#8B5CF6" stroke-width="2.5" opacity=".6"/>
  <polygon points="160,480 220,460 280,470 340,420 400,440 460,400 520,420 580,370 640,390 700,360 760,380 820,340 880,370 940,330 1000,350 1060,320 1060,480" fill="#00F0FF" opacity=".04"/>
  <polyline points="160,480 220,460 280,470 340,420 400,440 460,400 520,420 580,370 640,390 700,360 760,380 820,340 880,370 940,330 1000,350 1060,320" fill="none" stroke="#00F0FF" stroke-width="1.5" opacity=".35" stroke-dasharray="6,4"/>
  <!-- Data table below -->
  <rect x="110" y="545" width="980" height="180" rx="12" fill="#1a1035" stroke="#2d1b69"/>
  <rect x="130" y="560" width="100" height="8" rx="4" fill="#2d1b69" opacity=".4"/>
  <line x1="110" y1="580" x2="1090" y2="580" stroke="#2d1b69" stroke-width=".5"/>
  <rect x="130" y="592" width="80" height="6" rx="3" fill="#2d1b69" opacity=".25"/><rect x="350" y="592" width="60" height="6" rx="3" fill="#8B5CF6" opacity=".3"/><rect x="550" y="592" width="50" height="6" rx="3" fill="#00F0FF" opacity=".3"/><rect x="750" y="592" width="70" height="6" rx="3" fill="#2d1b69" opacity=".2"/><rect x="950" y="592" width="80" height="6" rx="3" fill="#10B981" opacity=".3"/>
  <line x1="110" y1="610" x2="1090" y2="610" stroke="#2d1b69" stroke-width=".3"/>
  <rect x="130" y="622" width="100" height="6" rx="3" fill="#2d1b69" opacity=".2"/><rect x="350" y="622" width="50" height="6" rx="3" fill="#2d1b69" opacity=".2"/><rect x="550" y="622" width="60" height="6" rx="3" fill="#2d1b69" opacity=".2"/><rect x="750" y="622" width="40" height="6" rx="3" fill="#2d1b69" opacity=".2"/><rect x="950" y="622" width="60" height="6" rx="3" fill="#2d1b69" opacity=".2"/>
  <line x1="110" y1="640" x2="1090" y2="640" stroke="#2d1b69" stroke-width=".3"/>
  <rect x="130" y="652" width="90" height="6" rx="3" fill="#2d1b69" opacity=".2"/><rect x="350" y="652" width="55" height="6" rx="3" fill="#2d1b69" opacity=".2"/><rect x="550" y="652" width="45" height="6" rx="3" fill="#2d1b69" opacity=".2"/><rect x="750" y="652" width="60" height="6" rx="3" fill="#2d1b69" opacity=".2"/><rect x="950" y="652" width="70" height="6" rx="3" fill="#2d1b69" opacity=".2"/>
  <circle cx="600" cy="400" r="180" fill="#8B5CF6" opacity=".03" filter="url(#glow)"/>
</svg>