<svg width="1200" height="800" xmlns="http://www.w3.org/2000/svg">
  <defs>
    <linearGradient id="bg" x1="0" y1="0" x2="1" y2="1"><stop offset="0%" stop-color="#0a0520"/><stop offset="100%" stop-color="#150a35"/></linearGradient>
    <linearGradient id="pur" x1="0" y1="0" x2="1" y2="1"><stop offset="0%" stop-color="#8B5CF6"/><stop offset="100%" stop-color="#6D28D9"/></linearGradient>
    <radialGradient id="g1" cx="50%" cy="30%"><stop offset="0%" stop-color="#8B5CF6" stop-opacity=".2"/><stop offset="100%" stop-color="#8B5CF6" stop-opacity="0"/></radialGradient>
    <filter id="glow"><feGaussianBlur stdDeviation="30"/></filter>
  </defs>
  <rect width="1200" height="800" fill="url(#bg)"/>
  <rect width="1200" height="800" fill="url(#g1)"/>
  <g opacity=".03"><line x1="100" y1="0" x2="100" y2="800" stroke="#8B5CF6"/><line x1="200" y1="0" x2="200" y2="800" stroke="#8B5CF6"/><line x1="300" y1="0" x2="300" y2="800" stroke="#8B5CF6"/><line x1="400" y1="0" x2="400" y2="800" stroke="#8B5CF6"/><line x1="500" y1="0" x2="500" y2="800" stroke="#8B5CF6"/><line x1="600" y1="0" x2="600" y2="800" stroke="#8B5CF6"/><line x1="700" y1="0" x2="700" y2="800" stroke="#8B5CF6"/><line x1="800" y1="0" x2="800" y2="800" stroke="#8B5CF6"/><line x1="900" y1="0" x2="900" y2="800" stroke="#8B5CF6"/><line x1="1000" y1="0" x2="1000" y2="800" stroke="#8B5CF6"/><line x1="1100" y1="0" x2="1100" y2="800" stroke="#8B5CF6"/><line x1="0" y1="100" x2="1200" y2="100" stroke="#8B5CF6"/><line x1="0" y1="200" x2="1200" y2="200" stroke="#8B5CF6"/><line x1="0" y1="300" x2="1200" y2="300" stroke="#8B5CF6"/><line x1="0" y1="400" x2="1200" y2="400" stroke="#8B5CF6"/><line x1="0" y1="500" x2="1200" y2="500" stroke="#8B5CF6"/><line x1="0" y1="600" x2="1200" y2="600" stroke="#8B5CF6"/><line x1="0" y1="700" x2="1200" y2="700" stroke="#8B5CF6"/></g>
  <!-- Browser -->
  <rect x="80" y="50" width="1040" height="700" rx="16" fill="#0d0d1a" stroke="#2d1b69"/>
  <rect x="80" y="50" width="1040" height="44" rx="16" fill="#1a1035"/><rect x="80" y="78" width="1040" height="16" fill="#1a1035"/>
  <circle cx="110" cy="72" r="6" fill="#FF5F57"/><circle cx="132" cy="72" r="6" fill="#FEBC2E"/><circle cx="154" cy="72" r="6" fill="#28C840"/>
  <rect x="300" y="62" width="480" height="22" rx="11" fill="#0d0d1a" stroke="#2d1b69" stroke-width=".5"/>
  <!-- Top nav -->
  <rect x="80" y="94" width="1040" height="48" fill="#120e24"/>
  <rect x="110" y="108" width="80" height="10" rx="5" fill="#8B5CF6" opacity=".6"/>
  <rect x="220" y="110" width="60" height="8" rx="4" fill="#2d1b69" opacity=".4"/><rect x="300" y="110" width="50" height="8" rx="4" fill="#2d1b69" opacity=".3"/><rect x="370" y="110" width="70" height="8" rx="4" fill="#2d1b69" opacity=".3"/>
  <rect x="980" y="106" width="100" height="26" rx="6" fill="url(#pur)" opacity=".5"/>
  <!-- KPI row -->
  <rect x="110" y="170" width="240" height="120" rx="12" fill="#1a1035" stroke="#2d1b69"/>
  <rect x="130" y="190" width="60" height="6" rx="3" fill="#2d1b69" opacity=".4"/>
  <text x="130" y="240" fill="#8B5CF6" font-family="system-ui" font-size="36" font-weight="bold" opacity=".8">2.4M</text>
  <rect x="130" y="260" width="80" height="6" rx="3" fill="#2d1b69" opacity=".3"/>
  <rect x="380" y="170" width="240" height="120" rx="12" fill="#1a1035" stroke="#2d1b69"/>
  <rect x="400" y="190" width="60" height="6" rx="3" fill="#2d1b69" opacity=".4"/>
  <text x="400" y="240" fill="#00F0FF" font-family="system-ui" font-size="36" font-weight="bold" opacity=".8">89%</text>
  <rect x="400" y="260" width="80" height="6" rx="3" fill="#2d1b69" opacity=".3"/>
  <rect x="650" y="170" width="240" height="120" rx="12" fill="#1a1035" stroke="#2d1b69"/>
  <rect x="670" y="190" width="60" height="6" rx="3" fill="#2d1b69" opacity=".4"/>
  <text x="670" y="240" fill="#10B981" font-family="system-ui" font-size="36" font-weight="bold" opacity=".8">+34%</text>
  <rect x="670" y="260" width="80" height="6" rx="3" fill="#2d1b69" opacity=".3"/>
  <rect x="920" y="170" width="170" height="120" rx="12" fill="#1a1035" stroke="#2d1b69"/>
  <rect x="940" y="190" width="60" height="6" rx="3" fill="#2d1b69" opacity=".4"/>
  <text x="940" y="240" fill="#F59E0B" font-family="system-ui" font-size="36" font-weight="bold" opacity=".8">847</text>
  <rect x="940" y="260" width="60" height="6" rx="3" fill="#2d1b69" opacity=".3"/>
  <!-- Chart area -->
  <rect x="110" y="310" width="520" height="300" rx="12" fill="#1a1035" stroke="#2d1b69"/>
  <rect x="130" y="330" width="100" height="8" rx="4" fill="#2d1b69" opacity=".4"/>
  <polyline points="160,560 220,520 280,540 340,480 400,500 460,420 520,440 580,380" fill="none" stroke="#8B5CF6" stroke-width="2.5" opacity=".7"/>
  <polyline points="160,560 220,540 280,530 340,510 400,520 460,470 520,460 580,430" fill="none" stroke="#00F0FF" stroke-width="2" opacity=".4" stroke-dasharray="4,4"/>
  <!-- Side charts -->
  <rect x="660" y="310" width="430" height="140" rx="12" fill="#1a1035" stroke="#2d1b69"/>
  <rect x="680" y="330" width="80" height="8" rx="4" fill="#2d1b69" opacity=".4"/>
  <rect x="680" y="360" width="40" height="70" rx="4" fill="url(#pur)" opacity=".3"/><rect x="730" y="380" width="40" height="50" rx="4" fill="url(#pur)" opacity=".4"/><rect x="780" y="350" width="40" height="80" rx="4" fill="url(#pur)" opacity=".5"/><rect x="830" y="370" width="40" height="60" rx="4" fill="url(#pur)" opacity=".3"/><rect x="880" y="340" width="40" height="90" rx="4" fill="#00F0FF" opacity=".25"/><rect x="930" y="360" width="40" height="70" rx="4" fill="url(#pur)" opacity=".35"/><rect x="980" y="380" width="40" height="50" rx="4" fill="url(#pur)" opacity=".25"/>
  <rect x="660" y="470" width="430" height="140" rx="12" fill="#1a1035" stroke="#2d1b69"/>
  <rect x="680" y="490" width="80" height="8" rx="4" fill="#2d1b69" opacity=".4"/>
  <circle cx="850" cy="545" r="40" fill="none" stroke="url(#pur)" stroke-width="8" opacity=".5"/><circle cx="850" cy="545" r="40" fill="none" stroke="#00F0FF" stroke-width="8" stroke-dasharray="62 189" opacity=".6"/>
  <circle cx="600" cy="450" r="180" fill="#8B5CF6" opacity=".03" filter="url(#glow)"/>
</svg>