<svg width="1200" height="800" xmlns="http://www.w3.org/2000/svg">
  <defs>
    <linearGradient id="bg" x1="0" y1="0" x2="1" y2="1"><stop offset="0%" stop-color="#0b0418"/><stop offset="100%" stop-color="#160838"/></linearGradient>
    <linearGradient id="pur" x1="0" y1="0" x2="1" y2="1"><stop offset="0%" stop-color="#8B5CF6"/><stop offset="100%" stop-color="#6D28D9"/></linearGradient>
    <linearGradient id="rainbow" x1="0" y1="0" x2="1" y2="0"><stop offset="0%" stop-color="#F43F5E"/><stop offset="25%" stop-color="#F59E0B"/><stop offset="50%" stop-color="#10B981"/><stop offset="75%" stop-color="#00F0FF"/><stop offset="100%" stop-color="#8B5CF6"/></linearGradient>
    <radialGradient id="g1" cx="50%" cy="40%"><stop offset="0%" stop-color="#8B5CF6" stop-opacity=".2"/><stop offset="100%" stop-color="#8B5CF6" stop-opacity="0"/></radialGradient>
    <filter id="glow"><feGaussianBlur stdDeviation="30"/></filter>
  </defs>
  <rect width="1200" height="800" fill="url(#bg)"/><rect width="1200" height="800" fill="url(#g1)"/>
  <g opacity=".03"><line x1="120" y1="0" x2="120" y2="800" stroke="#8B5CF6"/><line x1="240" y1="0" x2="240" y2="800" stroke="#8B5CF6"/><line x1="360" y1="0" x2="360" y2="800" stroke="#8B5CF6"/><line x1="480" y1="0" x2="480" y2="800" stroke="#8B5CF6"/><line x1="600" y1="0" x2="600" y2="800" stroke="#8B5CF6"/><line x1="720" y1="0" x2="720" y2="800" stroke="#8B5CF6"/><line x1="840" y1="0" x2="840" y2="800" stroke="#8B5CF6"/><line x1="960" y1="0" x2="960" y2="800" stroke="#8B5CF6"/><line x1="1080" y1="0" x2="1080" y2="800" stroke="#8B5CF6"/><line x1="0" y1="100" x2="1200" y2="100" stroke="#8B5CF6"/><line x1="0" y1="200" x2="1200" y2="200" stroke="#8B5CF6"/><line x1="0" y1="300" x2="1200" y2="300" stroke="#8B5CF6"/><line x1="0" y1="400" x2="1200" y2="400" stroke="#8B5CF6"/><line x1="0" y1="500" x2="1200" y2="500" stroke="#8B5CF6"/><line x1="0" y1="600" x2="1200" y2="600" stroke="#8B5CF6"/><line x1="0" y1="700" x2="1200" y2="700" stroke="#8B5CF6"/></g>
  <!-- Browser -->
  <rect x="80" y="50" width="1040" height="700" rx="16" fill="#0d0d1a" stroke="#2d1b69"/>
  <rect x="80" y="50" width="1040" height="44" rx="16" fill="#1a1035"/><rect x="80" y="78" width="1040" height="16" fill="#1a1035"/>
  <circle cx="110" cy="72" r="6" fill="#FF5F57"/><circle cx="132" cy="72" r="6" fill="#FEBC2E"/><circle cx="154" cy="72" r="6" fill="#28C840"/>
  <rect x="300" y="62" width="480" height="22" rx="11" fill="#0d0d1a" stroke="#2d1b69" stroke-width=".5"/>
  <!-- Tool bar -->
  <rect x="80" y="94" width="60" height="656" fill="#120e24"/>
  <rect x="92" y="114" width="36" height="36" rx="8" fill="url(#pur)" opacity=".3"/>
  <rect x="92" y="164" width="36" height="36" rx="8" fill="#1a1035" stroke="#2d1b69"/><rect x="92" y="214" width="36" height="36" rx="8" fill="#1a1035" stroke="#2d1b69"/><rect x="92" y="264" width="36" height="36" rx="8" fill="#1a1035" stroke="#2d1b69"/><rect x="92" y="314" width="36" height="36" rx="8" fill="#1a1035" stroke="#2d1b69"/>
  <!-- Canvas -->
  <rect x="140" y="94" width="980" height="656" fill="#0a0818"/>
  <!-- Layer panels left -->
  <rect x="160" y="114" width="220" height="540" rx="10" fill="#1a1035" stroke="#2d1b69"/>
  <rect x="175" y="134" width="80" height="8" rx="4" fill="#2d1b69" opacity=".4"/>
  <rect x="175" y="160" width="190" height="32" rx="6" fill="#12082a" stroke="#8B5CF6" stroke-width=".5"/>
  <rect x="190" y="172" width="80" height="8" rx="4" fill="#8B5CF6" opacity=".4"/>
  <rect x="175" y="200" width="190" height="32" rx="6" fill="#12082a" stroke="#2d1b69" stroke-width=".5"/>
  <rect x="190" y="212" width="100" height="8" rx="4" fill="#2d1b69" opacity=".35"/>
  <rect x="175" y="240" width="190" height="32" rx="6" fill="#12082a" stroke="#2d1b69" stroke-width=".5"/>
  <rect x="190" y="252" width="70" height="8" rx="4" fill="#2d1b69" opacity=".35"/>
  <rect x="175" y="280" width="190" height="32" rx="6" fill="#12082a" stroke="#2d1b69" stroke-width=".5"/>
  <rect x="190" y="292" width="110" height="8" rx="4" fill="#2d1b69" opacity=".35"/>
  <rect x="175" y="340" width="80" height="6" rx="3" fill="#2d1b69" opacity=".25"/>
  <rect x="175" y="360" width="190" height="80" rx="8" fill="#12082a"/>
  <rect x="185" y="370" width="60" height="60" rx="6" fill="url(#pur)" opacity=".15"/><rect x="255" y="370" width="60" height="60" rx="6" fill="#00F0FF" opacity=".08"/><rect x="325" y="370" width="30" height="60" rx="6" fill="#F43F5E" opacity=".08"/>
  <!-- Main design area -->
  <rect x="400" y="130" width="500" height="500" rx="0" fill="#08061a" stroke="#2d1b69" stroke-width=".5"/>
  <!-- Design elements -->
  <rect x="440" y="180" width="420" height="60" rx="8" fill="#1a1035" stroke="#2d1b69"/>
  <rect x="460" y="196" width="180" height="12" rx="6" fill="#8B5CF6" opacity=".4"/>
  <rect x="460" y="216" width="120" height="8" rx="4" fill="#2d1b69" opacity=".3"/>
  <rect x="440" y="260" width="200" height="200" rx="12" fill="url(#pur)" opacity=".12"/>
  <rect x="460" y="280" width="160" height="120" rx="8" fill="#1a1035" stroke="#8B5CF6" stroke-width=".5"/>
  <rect x="480" y="300" width="120" height="8" rx="4" fill="#8B5CF6" opacity=".35"/><rect x="480" y="320" width="80" height="6" rx="3" fill="#2d1b69" opacity=".3"/><rect x="480" y="340" width="100" height="20" rx="4" fill="url(#pur)" opacity=".4"/>
  <rect x="460" y="410" width="80" height="6" rx="3" fill="#2d1b69" opacity=".3"/><rect x="460" y="424" width="140" height="6" rx="3" fill="#2d1b69" opacity=".2"/>
  <rect x="660" y="260" width="200" height="200" rx="12" fill="#12082a" stroke="#2d1b69"/>
  <rect x="680" y="280" width="160" height="100" rx="8" fill="url(#pur)" opacity=".08"/>
  <rect x="700" y="310" width="100" height="10" rx="5" fill="#2d1b69" opacity=".35"/>
  <rect x="700" y="340" width="60" height="6" rx="3" fill="#2d1b69" opacity=".25"/>
  <rect x="680" y="400" width="80" height="24" rx="6" fill="url(#pur)" opacity=".4"/>
  <rect x="770" y="400" width="80" height="24" rx="6" fill="#1a1035" stroke="#2d1b69"/>
  <!-- Selection border -->
  <rect x="436" y="256" width="208" height="208" rx="12" fill="none" stroke="#8B5CF6" stroke-width="1.5" stroke-dasharray="4,4" opacity=".6"/>
  <rect x="432" y="252" width="8" height="8" rx="2" fill="#8B5CF6" opacity=".8"/><rect x="640" y="252" width="8" height="8" rx="2" fill="#8B5CF6" opacity=".8"/><rect x="432" y="460" width="8" height="8" rx="2" fill="#8B5CF6" opacity=".8"/><rect x="640" y="460" width="8" height="8" rx="2" fill="#8B5CF6" opacity=".8"/>
  <!-- Right inspector -->
  <rect x="920" y="114" width="190" height="540" rx="10" fill="#1a1035" stroke="#2d1b69"/>
  <rect x="936" y="134" width="80" height="8" rx="4" fill="#2d1b69" opacity=".4"/>
  <rect x="936" y="160" width="160" height="6" rx="3" fill="#2d1b69" opacity=".3"/>
  <rect x="936" y="180" width="70" height="24" rx="4" fill="#12082a" stroke="#2d1b69"/><rect x="1016" y="180" width="70" height="24" rx="4" fill="#12082a" stroke="#2d1b69"/>
  <rect x="936" y="224" width="80" height="6" rx="3" fill="#2d1b69" opacity=".25"/>
  <rect x="936" y="248" width="160" height="20" rx="4" fill="#12082a" stroke="#2d1b69"/>
  <rect x="936" y="288" width="80" height="6" rx="3" fill="#2d1b69" opacity=".25"/>
  <!-- Color swatches -->
  <circle cx="950" cy="320" r="10" fill="#8B5CF6" opacity=".6"/><circle cx="976" cy="320" r="10" fill="#00F0FF" opacity=".5"/><circle cx="1002" cy="320" r="10" fill="#F43F5E" opacity=".5"/><circle cx="1028" cy="320" r="10" fill="#F59E0B" opacity=".5"/><circle cx="1054" cy="320" r="10" fill="#10B981" opacity=".5"/>
  <!-- Spectrum bar -->
  <rect x="936" y="350" width="160" height="8" rx="4" fill="url(#rainbow)" opacity=".4"/>
  <circle cx="600" cy="400" r="200" fill="#8B5CF6" opacity=".04" filter="url(#glow)"/>
</svg>