<svg width="1200" height="800" xmlns="http://www.w3.org/2000/svg">
  <defs>
    <linearGradient id="bg" x1="0" y1="0" x2="1" y2="1"><stop offset="0%" stop-color="#0b0418"/><stop offset="100%" stop-color="#160838"/></linearGradient>
    <linearGradient id="pur" x1="0" y1="0" x2="1" y2="1"><stop offset="0%" stop-color="#8B5CF6"/><stop offset="100%" stop-color="#6D28D9"/></linearGradient>
    <radialGradient id="g1" cx="50%" cy="50%"><stop offset="0%" stop-color="#8B5CF6" stop-opacity=".15"/><stop offset="100%" stop-color="#8B5CF6" stop-opacity="0"/></radialGradient>
    <filter id="glow"><feGaussianBlur stdDeviation="30"/></filter>
  </defs>
  <rect width="1200" height="800" fill="url(#bg)"/><rect width="1200" height="800" fill="url(#g1)"/>
  <rect x="80" y="50" width="1040" height="700" rx="16" fill="#0d0d1a" stroke="#2d1b69"/>
  <rect x="80" y="50" width="1040" height="44" rx="16" fill="#1a1035"/><rect x="80" y="78" width="1040" height="16" fill="#1a1035"/>
  <circle cx="110" cy="72" r="6" fill="#FF5F57"/><circle cx="132" cy="72" r="6" fill="#FEBC2E"/><circle cx="154" cy="72" r="6" fill="#28C840"/>
  <!-- Toolbar -->
  <rect x="80" y="94" width="60" height="656" fill="#120e24"/>
  <rect x="92" y="114" width="36" height="36" rx="8" fill="#1a1035" stroke="#2d1b69"/><rect x="92" y="164" width="36" height="36" rx="8" fill="#1a1035" stroke="#2d1b69"/><rect x="92" y="214" width="36" height="36" rx="8" fill="url(#pur)" opacity=".3"/><rect x="92" y="264" width="36" height="36" rx="8" fill="#1a1035" stroke="#2d1b69"/>
  <!-- Tokens / theme view -->
  <rect x="140" y="94" width="980" height="656" fill="#0a0818"/>
  <rect x="160" y="114" width="940" height="50" rx="0" fill="#120e24"/>
  <rect x="180" y="128" width="60" height="10" rx="5" fill="#2d1b69" opacity=".4"/>
  <rect x="260" y="128" width="80" height="10" rx="5" fill="#8B5CF6" opacity=".5"/>
  <rect x="360" y="128" width="60" height="10" rx="5" fill="#2d1b69" opacity=".4"/>
  <!-- Color tokens -->
  <rect x="180" y="184" width="900" height="40" rx="8" fill="#1a1035" stroke="#2d1b69"/>
  <rect x="200" y="196" width="80" height="8" rx="4" fill="#2d1b69" opacity=".35"/>
  <rect x="360" y="192" width="24" height="16" rx="4" fill="#8B5CF6"/><rect x="394" y="196" width="60" height="8" rx="4" fill="#2d1b69" opacity=".25"/>
  <rect x="520" y="192" width="24" height="16" rx="4" fill="#00F0FF"/><rect x="554" y="196" width="60" height="8" rx="4" fill="#2d1b69" opacity=".25"/>
  <rect x="680" y="192" width="24" height="16" rx="4" fill="#F43F5E"/><rect x="714" y="196" width="60" height="8" rx="4" fill="#2d1b69" opacity=".25"/>
  <rect x="840" y="192" width="24" height="16" rx="4" fill="#10B981"/><rect x="874" y="196" width="60" height="8" rx="4" fill="#2d1b69" opacity=".25"/>
  <rect x="1000" y="192" width="24" height="16" rx="4" fill="#F59E0B"/><rect x="1034" y="196" width="30" height="8" rx="4" fill="#2d1b69" opacity=".25"/>
  <!-- Spacing tokens -->
  <rect x="180" y="240" width="900" height="40" rx="8" fill="#1a1035" stroke="#2d1b69"/>
  <rect x="200" y="252" width="60" height="8" rx="4" fill="#2d1b69" opacity=".35"/>
  <rect x="360" y="250" width="16" height="12" rx="2" fill="url(#pur)" opacity=".2"/><rect x="386" y="254" width="20" height="6" rx="3" fill="#2d1b69" opacity=".2"/>
  <rect x="440" y="248" width="24" height="16" rx="2" fill="url(#pur)" opacity=".25"/><rect x="474" y="254" width="20" height="6" rx="3" fill="#2d1b69" opacity=".2"/>
  <rect x="530" y="246" width="32" height="20" rx="2" fill="url(#pur)" opacity=".3"/><rect x="572" y="254" width="20" height="6" rx="3" fill="#2d1b69" opacity=".2"/>
  <rect x="630" y="244" width="40" height="24" rx="2" fill="url(#pur)" opacity=".25"/><rect x="680" y="254" width="20" height="6" rx="3" fill="#2d1b69" opacity=".2"/>
  <!-- Typography tokens -->
  <rect x="180" y="300" width="440" height="280" rx="12" fill="#1a1035" stroke="#2d1b69"/>
  <rect x="200" y="320" width="100" height="8" rx="4" fill="#2d1b69" opacity=".4"/>
  <text x="200" y="370" fill="#fff" font-family="system-ui" font-size="32" font-weight="bold" opacity=".5">Heading 1</text>
  <text x="200" y="410" fill="#fff" font-family="system-ui" font-size="24" font-weight="bold" opacity=".4">Heading 2</text>
  <text x="200" y="442" fill="#fff" font-family="system-ui" font-size="18" font-weight="bold" opacity=".35">Heading 3</text>
  <text x="200" y="470" fill="#fff" font-family="system-ui" font-size="14" opacity=".3">Body text regular</text>
  <text x="200" y="494" fill="#fff" font-family="system-ui" font-size="12" opacity=".25">Small text / Caption</text>
  <rect x="200" y="520" width="400" height="6" rx="3" fill="#2d1b69" opacity=".15"/>
  <rect x="200" y="540" width="300" height="6" rx="3" fill="#2d1b69" opacity=".12"/>
  <rect x="200" y="556" width="350" height="6" rx="3" fill="#2d1b69" opacity=".1"/>
  <!-- Shadow tokens -->
  <rect x="640" y="300" width="440" height="280" rx="12" fill="#1a1035" stroke="#2d1b69"/>
  <rect x="660" y="320" width="80" height="8" rx="4" fill="#2d1b69" opacity=".4"/>
  <!-- Shadow cards -->
  <rect x="680" y="360" width="120" height="80" rx="10" fill="#12082a" stroke="#2d1b69"/>
  <rect x="700" y="376" width="60" height="6" rx="3" fill="#2d1b69" opacity=".3"/>
  <rect x="700" y="392" width="80" height="6" rx="3" fill="#2d1b69" opacity=".2"/>
  <rect x="700" y="416" width="40" height="6" rx="3" fill="#2d1b69" opacity=".15"/>
  <rect x="828" y="356" width="130" height="90" rx="12" fill="#1a1035" stroke="#8B5CF6" stroke-width=".5"/>
  <rect x="848" y="376" width="80" height="6" rx="3" fill="#8B5CF6" opacity=".25"/>
  <rect x="848" y="392" width="90" height="6" rx="3" fill="#2d1b69" opacity=".2"/>
  <rect x="848" y="416" width="50" height="6" rx="3" fill="#2d1b69" opacity=".15"/>
  <rect x="680" y="470" width="380" height="80" rx="10" fill="#12082a" stroke="#2d1b69"/>
  <rect x="700" y="490" width="120" height="8" rx="4" fill="#2d1b69" opacity=".3"/>
  <rect x="700" y="510" width="340" height="6" rx="3" fill="#2d1b69" opacity=".15"/>
  <rect x="700" y="526" width="280" height="6" rx="3" fill="#2d1b69" opacity=".12"/>
  <!-- Border radius preview -->
  <rect x="180" y="600" width="900" height="120" rx="12" fill="#1a1035" stroke="#2d1b69"/>
  <rect x="200" y="620" width="100" height="8" rx="4" fill="#2d1b69" opacity=".4"/>
  <rect x="200" y="650" width="60" height="40" rx="0" fill="url(#pur)" opacity=".15" stroke="#8B5CF6" stroke-width=".5"/>
  <rect x="280" y="650" width="60" height="40" rx="4" fill="url(#pur)" opacity=".2" stroke="#8B5CF6" stroke-width=".5"/>
  <rect x="360" y="650" width="60" height="40" rx="8" fill="url(#pur)" opacity=".25" stroke="#8B5CF6" stroke-width=".5"/>
  <rect x="440" y="650" width="60" height="40" rx="12" fill="url(#pur)" opacity=".3" stroke="#8B5CF6" stroke-width=".5"/>
  <rect x="520" y="650" width="60" height="40" rx="20" fill="url(#pur)" opacity=".35" stroke="#8B5CF6" stroke-width=".5"/>
  <circle cx="600" cy="400" r="200" fill="#8B5CF6" opacity=".03" filter="url(#glow)"/>
</svg>