<svg width="1200" height="800" xmlns="http://www.w3.org/2000/svg">
  <defs>
    <linearGradient id="bg" x1="0" y1="0" x2="1" y2="1"><stop offset="0%" stop-color="#0c0418"/><stop offset="100%" stop-color="#180838"/></linearGradient>
    <linearGradient id="pur" x1="0" y1="0" x2="1" y2="1"><stop offset="0%" stop-color="#8B5CF6"/><stop offset="100%" stop-color="#6D28D9"/></linearGradient>
    <radialGradient id="g1" cx="70%" cy="40%"><stop offset="0%" stop-color="#8B5CF6" stop-opacity=".12"/><stop offset="100%" stop-color="#8B5CF6" stop-opacity="0"/></radialGradient>
    <filter id="glow"><feGaussianBlur stdDeviation="30"/></filter>
  </defs>
  <rect width="1200" height="800" fill="url(#bg)"/><rect width="1200" height="800" fill="url(#g1)"/>
  <rect x="80" y="50" width="1040" height="700" rx="16" fill="#0d0d1a" stroke="#2d1b69"/>
  <rect x="80" y="50" width="1040" height="44" rx="16" fill="#1a1035"/><rect x="80" y="78" width="1040" height="16" fill="#1a1035"/>
  <circle cx="110" cy="72" r="6" fill="#FF5F57"/><circle cx="132" cy="72" r="6" fill="#FEBC2E"/><circle cx="154" cy="72" r="6" fill="#28C840"/>
  <rect x="80" y="94" width="1040" height="48" fill="#120e24"/>
  <!-- Cart / Checkout -->
  <rect x="110" y="165" width="600" height="540" rx="16" fill="#1a1035" stroke="#2d1b69"/>
  <rect x="130" y="185" width="100" height="10" rx="5" fill="#2d1b69" opacity=".4"/>
  <!-- Cart items -->
  <rect x="130" y="215" width="560" height="90" rx="10" fill="#12082a" stroke="#2d1b69" stroke-width=".5"/>
  <rect x="150" y="230" width="60" height="60" rx="8" fill="url(#pur)" opacity=".15"/><rect x="225" y="238" width="160" height="10" rx="5" fill="#2d1b69" opacity=".4"/><rect x="225" y="258" width="100" height="8" rx="4" fill="#2d1b69" opacity=".25"/><text x="580" y="260" fill="#fff" font-family="system-ui" font-size="16" font-weight="bold" opacity=".5" text-anchor="end">$199</text>
  <rect x="130" y="315" width="560" height="90" rx="10" fill="#12082a" stroke="#2d1b69" stroke-width=".5"/>
  <rect x="150" y="330" width="60" height="60" rx="8" fill="#00F0FF" opacity=".08"/><rect x="225" y="338" width="140" height="10" rx="5" fill="#2d1b69" opacity=".4"/><rect x="225" y="358" width="120" height="8" rx="4" fill="#2d1b69" opacity=".25"/><text x="580" y="360" fill="#fff" font-family="system-ui" font-size="16" font-weight="bold" opacity=".5" text-anchor="end">$349</text>
  <rect x="130" y="415" width="560" height="90" rx="10" fill="#12082a" stroke="#2d1b69" stroke-width=".5"/>
  <rect x="150" y="430" width="60" height="60" rx="8" fill="#F43F5E" opacity=".08"/><rect x="225" y="438" width="180" height="10" rx="5" fill="#2d1b69" opacity=".4"/><rect x="225" y="458" width="80" height="8" rx="4" fill="#2d1b69" opacity=".25"/><text x="580" y="460" fill="#fff" font-family="system-ui" font-size="16" font-weight="bold" opacity=".5" text-anchor="end">$449</text>
  <!-- Promo code -->
  <rect x="130" y="530" width="400" height="40" rx="8" fill="#12082a" stroke="#2d1b69"/><rect x="150" y="544" width="80" height="8" rx="4" fill="#2d1b69" opacity=".25"/>
  <rect x="540" y="530" width="150" height="40" rx="8" fill="url(#pur)" opacity=".4"/>
  <!-- Totals -->
  <line x1="130" y1="590" x2="690" y2="590" stroke="#2d1b69" stroke-width=".5"/>
  <rect x="130" y="605" width="60" height="8" rx="4" fill="#2d1b69" opacity=".3"/><text x="640" y="613" fill="#fff" font-family="system-ui" font-size="14" opacity=".4" text-anchor="end">$997.00</text>
  <rect x="130" y="630" width="40" height="8" rx="4" fill="#2d1b69" opacity=".3"/><text x="640" y="638" fill="#fff" font-family="system-ui" font-size="14" opacity=".4" text-anchor="end">$0.00</text>
  <line x1="130" y1="655" x2="690" y2="655" stroke="#2d1b69" stroke-width=".5"/>
  <rect x="130" y="668" width="50" height="10" rx="5" fill="#2d1b69" opacity=".35"/><text x="640" y="678" fill="#fff" font-family="system-ui" font-size="18" font-weight="bold" opacity=".6" text-anchor="end">$997.00</text>
  <!-- Order summary -->
  <rect x="740" y="165" width="350" height="340" rx="16" fill="#1a1035" stroke="#2d1b69"/>
  <rect x="760" y="185" width="120" height="10" rx="5" fill="#2d1b69" opacity=".4"/>
  <rect x="760" y="220" width="310" height="40" rx="8" fill="#12082a" stroke="#2d1b69"/><rect x="780" y="234" width="100" height="8" rx="4" fill="#2d1b69" opacity=".25"/>
  <rect x="760" y="270" width="310" height="40" rx="8" fill="#12082a" stroke="#2d1b69"/><rect x="780" y="284" width="140" height="8" rx="4" fill="#2d1b69" opacity=".25"/>
  <rect x="760" y="320" width="310" height="40" rx="8" fill="#12082a" stroke="#2d1b69"/><rect x="780" y="334" width="80" height="8" rx="4" fill="#2d1b69" opacity=".25"/>
  <rect x="760" y="380" width="310" height="40" rx="8" fill="#12082a" stroke="#2d1b69"/><rect x="780" y="394" width="120" height="8" rx="4" fill="#2d1b69" opacity=".25"/>
  <rect x="760" y="440" width="310" height="50" rx="10" fill="url(#pur)" opacity=".6"/>
  <circle cx="600" cy="400" r="200" fill="#8B5CF6" opacity=".03" filter="url(#glow)"/>
</svg>