<svg width="1200" height="800" xmlns="http://www.w3.org/2000/svg">
  <defs>
    <linearGradient id="bg" x1="0" y1="0" x2="1" y2="1"><stop offset="0%" stop-color="#0c0418"/><stop offset="100%" stop-color="#180838"/></linearGradient>
    <linearGradient id="pur" x1="0" y1="0" x2="1" y2="1"><stop offset="0%" stop-color="#8B5CF6"/><stop offset="100%" stop-color="#6D28D9"/></linearGradient>
    <radialGradient id="g1" cx="60%" cy="35%"><stop offset="0%" stop-color="#8B5CF6" stop-opacity=".18"/><stop offset="100%" stop-color="#8B5CF6" stop-opacity="0"/></radialGradient>
    <radialGradient id="g2" cx="25%" cy="70%"><stop offset="0%" stop-color="#F43F5E" stop-opacity=".08"/><stop offset="100%" stop-color="#F43F5E" stop-opacity="0"/></radialGradient>
    <filter id="glow"><feGaussianBlur stdDeviation="30"/></filter>
  </defs>
  <rect width="1200" height="800" fill="url(#bg)"/>
  <rect width="1200" height="800" fill="url(#g1)"/><rect width="1200" height="800" fill="url(#g2)"/>
  <g opacity=".03"><line x1="150" y1="0" x2="150" y2="800" stroke="#8B5CF6"/><line x1="300" y1="0" x2="300" y2="800" stroke="#8B5CF6"/><line x1="450" y1="0" x2="450" y2="800" stroke="#8B5CF6"/><line x1="600" y1="0" x2="600" y2="800" stroke="#8B5CF6"/><line x1="750" y1="0" x2="750" y2="800" stroke="#8B5CF6"/><line x1="900" y1="0" x2="900" y2="800" stroke="#8B5CF6"/><line x1="1050" y1="0" x2="1050" y2="800" stroke="#8B5CF6"/><line x1="0" y1="100" x2="1200" y2="100" stroke="#8B5CF6"/><line x1="0" y1="200" x2="1200" y2="200" stroke="#8B5CF6"/><line x1="0" y1="300" x2="1200" y2="300" stroke="#8B5CF6"/><line x1="0" y1="400" x2="1200" y2="400" stroke="#8B5CF6"/><line x1="0" y1="500" x2="1200" y2="500" stroke="#8B5CF6"/><line x1="0" y1="600" x2="1200" y2="600" stroke="#8B5CF6"/><line x1="0" y1="700" x2="1200" y2="700" stroke="#8B5CF6"/></g>
  <!-- Browser -->
  <rect x="80" y="50" width="1040" height="700" rx="16" fill="#0d0d1a" stroke="#2d1b69"/>
  <rect x="80" y="50" width="1040" height="44" rx="16" fill="#1a1035"/><rect x="80" y="78" width="1040" height="16" fill="#1a1035"/>
  <circle cx="110" cy="72" r="6" fill="#FF5F57"/><circle cx="132" cy="72" r="6" fill="#FEBC2E"/><circle cx="154" cy="72" r="6" fill="#28C840"/>
  <rect x="300" y="62" width="480" height="22" rx="11" fill="#0d0d1a" stroke="#2d1b69" stroke-width=".5"/>
  <!-- Top nav -->
  <rect x="80" y="94" width="1040" height="48" fill="#120e24"/>
  <rect x="110" y="110" width="80" height="10" rx="5" fill="#8B5CF6" opacity=".5"/>
  <rect x="820" y="104" width="80" height="28" rx="6" fill="#1a1035" stroke="#2d1b69"/><rect x="920" y="104" width="80" height="28" rx="6" fill="url(#pur)" opacity=".5"/>
  <rect x="1020" y="108" width="28" height="20" rx="10" fill="#1a1035" stroke="#2d1b69"/>
  <!-- Hero product -->
  <rect x="110" y="160" width="560" height="380" rx="16" fill="#1a1035" stroke="#2d1b69"/>
  <rect x="130" y="180" width="520" height="260" rx="12" fill="#12082a"/>
  <!-- 3D product placeholder -->
  <rect x="280" y="220" width="220" height="180" rx="4" fill="url(#pur)" opacity=".1" transform="skewY(-3)"/>
  <rect x="300" y="240" width="180" height="140" rx="8" fill="#1a1035" stroke="#8B5CF6" stroke-width=".5" transform="skewY(-3)"/>
  <rect x="320" y="260" width="140" height="80" rx="4" fill="url(#pur)" opacity=".15"/>
  <text x="340" y="310" fill="#8B5CF6" font-family="system-ui" font-size="24" font-weight="bold" opacity=".6">VERTEX</text>
  <!-- Price / CTA -->
  <rect x="130" y="460" width="80" height="8" rx="4" fill="#2d1b69" opacity=".4"/>
  <text x="130" y="500" fill="#fff" font-family="system-ui" font-size="28" font-weight="bold" opacity=".7">$299.00</text>
  <rect x="130" y="515" width="120" height="6" rx="3" fill="#2d1b69" opacity=".25"/>
  <rect x="480" y="470" width="160" height="44" rx="8" fill="url(#pur)" opacity=".7"/>
  <!-- Right sidebar -->
  <rect x="700" y="160" width="390" height="180" rx="12" fill="#1a1035" stroke="#2d1b69"/>
  <rect x="720" y="180" width="100" height="8" rx="4" fill="#2d1b69" opacity=".4"/>
  <rect x="720" y="204" width="350" height="60" rx="8" fill="#12082a"/>
  <rect x="740" y="220" width="200" height="8" rx="4" fill="#2d1b69" opacity=".3"/><rect x="740" y="238" width="160" height="6" rx="3" fill="#2d1b69" opacity=".2"/>
  <circle cx="740" cy="300" r="8" fill="#8B5CF6" opacity=".5"/><circle cx="770" cy="300" r="8" fill="#00F0FF" opacity=".4"/><circle cx="800" cy="300" r="8" fill="#F43F5E" opacity=".4"/><circle cx="830" cy="300" r="8" fill="#F59E0B" opacity=".4"/>
  <!-- Right bottom cards -->
  <rect x="700" y="360" width="185" height="180" rx="12" fill="#1a1035" stroke="#2d1b69"/>
  <rect x="720" y="380" width="145" height="100" rx="8" fill="#12082a"/>
  <rect x="740" y="420" width="80" height="8" rx="4" fill="#2d1b69" opacity=".3"/>
  <rect x="720" y="500" width="60" height="6" rx="3" fill="#2d1b69" opacity=".4"/>
  <rect x="720" y="516" width="80" height="6" rx="3" fill="#2d1b69" opacity=".25"/>
  <rect x="905" y="360" width="185" height="180" rx="12" fill="#1a1035" stroke="#2d1b69"/>
  <rect x="925" y="380" width="145" height="100" rx="8" fill="#12082a"/>
  <rect x="945" y="420" width="80" height="8" rx="4" fill="#2d1b69" opacity=".3"/>
  <rect x="925" y="500" width="60" height="6" rx="3" fill="#2d1b69" opacity=".4"/>
  <rect x="925" y="516" width="80" height="6" rx="3" fill="#2d1b69" opacity=".25"/>
  <!-- Bottom bar -->
  <rect x="110" y="560" width="980" height="160" rx="12" fill="#1a1035" stroke="#2d1b69"/>
  <rect x="130" y="580" width="80" height="8" rx="4" fill="#2d1b69" opacity=".4"/>
  <rect x="130" y="604" width="160" height="90" rx="8" fill="#12082a"/><rect x="310" y="604" width="160" height="90" rx="8" fill="#12082a"/><rect x="490" y="604" width="160" height="90" rx="8" fill="#12082a"/><rect x="670" y="604" width="160" height="90" rx="8" fill="#12082a"/><rect x="850" y="604" width="160" height="90" rx="8" fill="#12082a"/>
  <circle cx="600" cy="400" r="200" fill="#8B5CF6" opacity=".03" filter="url(#glow)"/>
</svg>